# File created by Blade
# Date/Time:  Tue Jan 27 19:05:02 2015
# Frame Rate: 120.000 fps
#------------------------------------------------------
:FULLY-SPECIFIED
:DEGREES
2952
root -2.447628 31.708404 -5.236017 11.605041 -39.595288 -8.172146
Spine 3.210475 15.974096 -3.039849
Head 21.989839 28.509966 -4.784144
LeftShoulder -21.096314 20.541141 13.814797
LeftArm -7.894951 -54.804189 -67.115916
LeftForeArm -12.471250 -0.000000 100.722651
LeftHand -11.061887 0.000000 34.035222
LeftHandThumb1 -26.253704 0.000000 33.147579
RightShoulder 2.282934 15.313028 -6.872654
RightArm 81.958188 -76.514235 24.181177
RightForeArm -40.893419 -0.000000 26.545258
RightHand -9.919842 -0.000000 19.920217
RightHandThumb1 -24.326973 -0.000000 -32.862282
LeftUpLeg -12.304607 15.932533 -6.560801
LeftLeg 17.161006 -0.000000 -0.000000
LeftFoot -33.483840 35.353071 -22.412205
LeftToeBase 10.496998 -0.000000 -0.000000
RightUpLeg -26.136090 -65.030168 7.803145
RightLeg 85.828409 -0.000000 -0.000000
RightFoot -11.465107 -13.213244 32.032711
RightToeBase 2.432965 -0.000000 -0.000000
2953
root -2.449902 31.710666 -5.236454 11.639224 -39.514033 -8.160893
Spine 3.186990 15.939749 -3.042779
Head 21.986760 28.469402 -4.759722
LeftShoulder -21.097642 20.516956 13.782532
LeftArm -7.754359 -54.728455 -67.284016
LeftForeArm -12.226666 -0.000000 100.912006
LeftHand -11.163630 -0.000000 34.056002
LeftHandThumb1 -26.253704 0.000000 33.147579
RightShoulder 2.296196 15.291949 -6.850894
RightArm 81.420348 -76.519797 24.714068
RightForeArm -40.932476 -0.000000 26.445039
RightHand -9.918279 0.000000 19.995141
RightHandThumb1 -24.326973 -0.000000 -32.862282
LeftUpLeg -12.314424 15.865780 -6.555673
LeftLeg 17.112986 -0.000000 -0.000000
LeftFoot -33.347890 35.373864 -22.243224
LeftToeBase 10.401217 -0.000000 -0.000000
RightUpLeg -26.161208 -65.041989 7.820604
RightLeg 85.797745 -0.000000 -0.000000
RightFoot -11.454649 -13.112070 32.073059
RightToeBase 2.399521 -0.000000 -0.000000
2954
root -2.453204 31.713119 -5.237730 11.682788 -39.415324 -8.163939
Spine 3.155360 15.872053 -3.038495
Head 22.013813 28.480421 -4.708524
LeftShoulder -21.115613 20.501738 13.777223
LeftArm -7.571345 -54.700237 -67.560182
LeftForeArm -11.960616 -0.000000 101.119134
LeftHand -11.216927 -0.000000 33.930839
LeftHandThumb1 -26.253704 0.000000 33.147579
RightShoulder 2.334087 15.249776 -6.820170
RightArm 80.939022 -76.503032 25.178772
RightForeArm -40.875600 -0.000000 26.378741
RightHand -9.971714 -0.000000 20.122604
RightHandThumb1 -24.326973 -0.000000 -32.862282
LeftUpLeg -12.330677 15.767515 -6.531279
LeftLeg 17.072613 -0.000000 -0.000000
LeftFoot -33.285087 35.376581 -22.162410
LeftToeBase 10.444795 -0.000000 -0.000000
RightUpLeg -26.165414 -65.065191 7.828881
RightLeg 85.766614 -0.000000 -0.000000
RightFoot -11.417427 -13.023278 32.192033
RightToeBase 2.341290 -0.000000 -0.000000
2955
root -2.458216 31.715848 -5.237723 11.731371 -39.310543 -8.186222
Spine 3.135010 15.803231 -3.010364
Head 22.019135 28.492317 -4.683713
LeftShoulder -21.148326 20.450481 13.729858
LeftArm -7.499049 -54.557751 -67.664193
LeftForeArm -11.929719 -0.000000 101.380041
LeftHand -11.299759 -0.000000 34.071579
LeftHandThumb1 -26.253704 0.000000 33.147579
RightShoulder 2.351027 15.277221 -6.789287
RightArm 80.554816 -76.555645 25.553671
RightForeArm -40.845380 -0.000000 26.269379
RightHand -10.015313 -0.000000 19.938418
RightHandThumb1 -24.326973 -0.000000 -32.862282
LeftUpLeg -12.343138 15.727297 -6.509865
LeftLeg 17.009149 -0.000000 -0.000000
LeftFoot -33.315436 35.366012 -22.195235
LeftToeBase 10.501091 -0.000000 -0.000000
RightUpLeg -26.128130 -65.111063 7.830050
RightLeg 85.751506 -0.000000 -0.000000
RightFoot -11.466883 -12.852924 32.391508
RightToeBase 2.344284 -0.000000 -0.000000
